{
  "asset": {
    "version": "2.0"
  },
  "scenes": [
    {
      "nodes": [
        0
      ]
    }
  ],
  "nodes": [
    {
      "mesh": 0
    }
  ],
  "meshes": [
    {
      "primitives": [
        {
          "attributes": {
            "POSITION": 0,
            "COLOR_0": 1
          },
          "indices": 2,
          "material": 0
        }
      ]
    }
  ],
  "accessors": [
    {
      "bufferView": 0,
      "componentType": 5126,
      "count": 488,
      "type": "VEC3",
      "max": [
        32,
        32,
        10
      ],
      "min": [
        0,
        0,
        0
      ]
    },
    {
      "bufferView": 1,
      "componentType": 5126,
      "count": 488,
      "type": "VEC4"
    },
    {
      "bufferView": 2,
      "componentType": 5125,
      "count": 2196,
      "type": "SCALAR"
    }
  ],
  "bufferViews": [
    {
      "buffer": 0,
      "byteOffset": 0,
      "byteLength": 5856,
      "target": 34962
    },
    {
      "buffer": 0,
      "byteOffset": 5856,
      "byteLength": 7808,
      "target": 34962
    },
    {
      "buffer": 0,
      "byteOffset": 13664,
      "byteLength": 8784,
      "target": 34963
    }
  ],
  "buffers": [
    {
      "byteLength": 22448,
      "uri": "data:application/octet-stream;base64,"
    }
  ],
  "materials": [
    {
      "pbrMetallicRoughness": {
        "baseColorFactor": [
          1,
          1,
          1,
          1
        ],
        "metallicFactor": 0,
        "roughnessFactor": 0.9
      }
    }
  ]
}