{
  "asset": {
    "version": "2.0"
  },
  "scenes": [
    {
      "nodes": [
        0
      ]
    }
  ],
  "nodes": [
    {
      "mesh": 0
    }
  ],
  "meshes": [
    {
      "primitives": [
        {
          "attributes": {
            "POSITION": 0,
            "COLOR_0": 1
          },
          "indices": 2,
          "material": 0
        }
      ]
    }
  ],
  "accessors": [
    {
      "bufferView": 0,
      "componentType": 5126,
      "count": 8552,
      "type": "VEC3",
      "max": [
        32,
        32,
        14
      ],
      "min": [
        0,
        0,
        0
      ]
    },
    {
      "bufferView": 1,
      "componentType": 5126,
      "count": 8552,
      "type": "VEC4"
    },
    {
      "bufferView": 2,
      "componentType": 5125,
      "count": 38484,
      "type": "SCALAR"
    }
  ],
  "bufferViews": [
    {
      "buffer": 0,
      "byteOffset": 0,
      "byteLength": 102624,
      "target": 34962
    },
    {
      "buffer": 0,
      "byteOffset": 102624,
      "byteLength": 136832,
      "target": 34962
    },
    {
      "buffer": 0,
      "byteOffset": 239456,
      "byteLength": 153936,
      "target": 34963
    }
  ],
  "buffers": [
    {
      "byteLength": 393392,
      "uri": "data:application/octet-stream;base64,"
    }
  ],
  "materials": [
    {
      "pbrMetallicRoughness": {
        "baseColorFactor": [
          1,
          1,
          1,
          1
        ],
        "metallicFactor": 0,
        "roughnessFactor": 0.9
      }
    }
  ]
}